<svg xmlns="http://www.w3.org/2000/svg" viewBox="0 0 96 96">
  <path fill="rgba(0,0,0,0)" d="M0 0h96v96H0z"/>
  <path fill="#f2e5be" d="M26 18c2 0 4 2 4 4v56c0 2-2 4-4 4s-4-2-4-4V22c0-2 2-4 4-4Z"/>
  <path fill="#0b0e0a" opacity=".55" d="M26 24h3v52h-3V24Z"/>
  <path fill="#1a3a6b" d="M30 24h44c2 0 4 2 4 4v6c0 2-2 4-4 4H30V24Z"/>
  <path fill="#f2e5be" d="M46 29l2.1 4.2 4.6.7-3.3 3.2.8 4.6-4.2-2.2-4.2 2.2.8-4.6-3.3-3.2 4.6-.7L46 29Z"/>
  <path fill="#8b3128" d="M30 38h38c2 0 4 2 4 4v6c0 2-2 4-4 4H30V38Z"/>
  <path fill="#f2e5be" d="M30 52h32c2 0 4 2 4 4v6c0 2-2 4-4 4H30V52Z"/>
  <path fill="#0b0e0a" opacity=".25" d="M24 80h40v6H24z"/>
</svg>
