<svg xmlns="http://www.w3.org/2000/svg" viewBox="0 0 96 96">
  <path fill="#f2e5be" d="M18 44h41l9 9h7c3 0 5 2 5 5v7c0 3-2 5-5 5H18c-3 0-5-2-5-5V49c0-3 2-5 5-5Zm6-9h27l6 6H24v-6Z"/>
  <path fill="#0b0e0a" opacity=".55" d="M26 52h14v8H26z"/>
  <path fill="#0b0e0a" opacity=".55" d="M44 52h10v8H44z"/>
  <path fill="#0b0e0a" opacity=".55" d="M18 62h58v5H18z"/>
  <path fill="#f2e5be" d="M24 72c4 0 7 3 7 7s-3 7-7 7-7-3-7-7 3-7 7-7Zm46 0c4 0 7 3 7 7s-3 7-7 7-7-3-7-7 3-7 7-7Z"/>
  <path fill="#0b0e0a" opacity=".6" d="M24 76a3 3 0 1 1 0 6 3 3 0 0 1 0-6Zm46 0a3 3 0 1 1 0 6 3 3 0 0 1 0-6Z"/>
</svg>
