<svg xmlns="http://www.w3.org/2000/svg" viewBox="0 0 96 96">
  <path fill="#f2e5be" d="M18 50h55l7 6c2 2 3 4 3 7v7c0 4-3 7-7 7H20c-4 0-7-3-7-7V57c0-4 3-7 7-7Zm18-18h24l6 6v10H30V38l6-6Z"/>
  <path fill="#0b0e0a" opacity=".55" d="M48 38h16v6H48z"/>
  <path fill="#0b0e0a" opacity=".55" d="M66 40h22v4H66z"/>
  <path fill="#0b0e0a" opacity=".45" d="M20 62h56v5H20z"/>
  <path fill="#f2e5be" d="M24 70h48c2 0 4 2 4 4v2c0 2-2 4-4 4H24c-2 0-4-2-4-4v-2c0-2 2-4 4-4Z"/>
  <path fill="#0b0e0a" opacity=".6" d="M26 74h6v4h-6zm10 0h6v4h-6zm10 0h6v4h-6zm10 0h6v4h-6zm10 0h6v4h-6z"/>
</svg>
