<svg xmlns="http://www.w3.org/2000/svg" viewBox="0 0 96 96">
  <g fill="none" stroke="none">
    <path fill="#f2e5be" d="M48 16c6 0 11 5 11 11 0 6-5 11-11 11s-11-5-11-11c0-6 5-11 11-11Z"/>
    <path fill="#0b0e0a" opacity=".55" d="M34 27c3-8 25-8 28 0v7H34v-7Z"/>
    <path fill="#f2e5be" d="M36 40h24l6 10v14l-8 7v10l6 8c2 3 1 6-2 8l-2 1c-3 2-6 1-8-2l-4-7-4 8c-1 3-4 5-8 4l-2-1c-3-1-5-4-4-8l6-14V71l-6-7V50l6-10Z"/>
    <path fill="#0b0e0a" opacity=".55" d="M55 47l26-13 2 4-26 13-2-4Z"/>
    <path fill="#0b0e0a" opacity=".55" d="M30 49l26-13 2 4-26 13-2-4Z"/>
  </g>
</svg>
